<svg width="42" height="42" viewBox="0 0 42 42" fill="none" xmlns="http://www.w3.org/2000/svg">
<path d="M20.7667 39.698C12.1356 39.698 5.13867 32.7045 5.13867 24.0775C5.13867 15.4506 12.1356 8.45703 20.7667 8.45703C29.3978 8.45703 36.3947 15.4506 36.3947 24.0775C36.3947 32.7045 29.3978 39.698 20.7667 39.698Z" fill="#FF9F6C"/>
<path d="M31.3702 37.0075C31.8809 37.7957 32.9386 38.0267 33.6825 37.4539C36.7399 35.1002 39.0899 31.9332 40.453 28.3003C42.0157 24.1354 42.1987 19.5783 40.975 15.3003C39.7513 11.0223 37.1855 7.24949 33.6558 4.53768C30.126 1.82586 25.8187 0.318376 21.3685 0.237263C16.9182 0.15615 12.5602 1.5057 8.93641 4.08713C5.3126 6.66856 2.61456 10.3454 1.2397 14.576C-0.135158 18.8067 -0.114146 23.3675 1.29964 27.5866C2.53284 31.2669 4.76887 34.5174 7.74067 36.9811C8.46376 37.5806 9.52899 37.3883 10.0673 36.6192L19.552 23.0682C20.2439 22.0798 21.7166 22.1067 22.3729 23.1197L31.3702 37.0075Z" fill="#EBBDEC"/>
<rect x="6.83253" y="9.41553" width="28.5993" height="23.4405" rx="6.29306" fill="#0A47C2" stroke="#ED6CEF" stroke-width="1.0205"/>
<path d="M13.6027 22.9657V20.7546H11.3917V19.6491H13.6027V17.438H15.8138V19.6491H18.0249V20.7546H15.8138V22.9657H13.6027Z" fill="#52C8F5"/>
<path d="M11.3917 25.1599V24.0543H18.0249V25.1599H11.3917Z" fill="#52C8F5"/>
<path d="M23.5264 25.1599V24.0543H30.1597V25.1599H23.5264Z" fill="#52C8F5"/>
<path d="M25.7375 22.9657V20.7546H23.5264V19.6491H25.7375V17.438H27.9486V19.6491H30.1597V20.7546H27.9486V22.9657H25.7375Z" fill="#52C8F5"/>
<path d="M22.1448 28.3724H22.8251V29.0528H20.7842V28.3724H20.1038V27.6921H19.4235V27.0118H21.4645V27.6921H22.1448V28.3724ZM18.7432 27.6921H19.4235V28.3724H18.7432V27.6921ZM23.5055 27.6921V28.3724H22.8251V27.6921H23.5055Z" fill="#52C8F5"/>
<ellipse cx="1.91685" cy="3.69984" rx="1.91685" ry="3.69984" transform="matrix(0.517621 0.85561 -0.85583 0.517257 15.5156 1.46875)" fill="white"/>
</svg>
