<svg width="40" height="40" viewBox="0 0 40 40" fill="none" xmlns="http://www.w3.org/2000/svg">
<path d="M19.7816 37.8133C11.5635 37.8133 4.90137 31.1512 4.90137 22.933C4.90137 14.7149 11.5635 8.05273 19.7816 8.05273C27.9998 8.05273 34.6619 14.7149 34.6619 22.933C34.6619 31.1512 27.9998 37.8133 19.7816 37.8133Z" fill="#2B2B2B"/>
<circle cx="20.0001" cy="20" r="19.782" transform="rotate(0.634872 20.0001 20)" fill="#FFCF56"/>
<rect x="6.11626" y="18.7217" width="27.3315" height="12.6263" rx="6.31313" fill="#1EB5F0" stroke="#808080" stroke-width="1.07216"/>
<path d="M9.10352 27.0963V25.9348H10.265V24.7733H11.4265V23.6118H10.265V22.4503H9.10352V21.2888H11.4265V22.4503H12.588V23.6118H13.7495V22.4503H14.911V21.2888H17.234V22.4503H16.0725V23.6118H14.911V24.7733H16.0725V25.9348H17.234V27.0963H14.911V25.9348H13.7495V24.7733H12.588V25.9348H11.4265V27.0963H9.10352Z" fill="#2B2B2B"/>
<path d="M22.4082 27.0963V25.9348H23.5697V24.7733H24.7312V23.6118H23.5697V22.4503H22.4082V21.2888H24.7312V22.4503H25.8927V23.6118H27.0542V22.4503H28.2157V21.2888H30.5387V22.4503H29.3772V23.6118H28.2157V24.7733H29.3772V25.9348H30.5387V27.0963H28.2157V25.9348H27.0542V24.7733H25.8927V25.9348H24.7312V27.0963H22.4082Z" fill="#2B2B2B"/>
<path d="M21.5001 28.4112L21.5001 29.5005L18.7725 29.5005L18.7725 28.4112L21.5001 28.4112Z" fill="#2B2B2B"/>
<path d="M12.1737 28.3594L11.2041 29.7599M13.7896 28.3594L12.8201 29.7599M15.4056 28.3594L14.5976 29.7599" stroke="#FFC2A2" stroke-width="1.07216"/>
<path d="M25.3976 28.3594L24.5088 29.7599M26.8789 28.3594L25.9901 29.7599M28.3602 28.3594L27.6195 29.7599" stroke="#FFC2A2" stroke-width="1.07216"/>
<ellipse cx="9.66702" cy="10.5431" rx="3.15112" ry="4.72668" transform="rotate(40.4921 9.66702 10.5431)" fill="white"/>
</svg>
