<svg width="26" height="26" viewBox="0 0 26 26" fill="none" xmlns="http://www.w3.org/2000/svg">
<path fill-rule="evenodd" clip-rule="evenodd" d="M24.6201 1.16895H20.0801V6.18574H17.7714V1.16895H8.69136V6.18574H5.88476V1.1691H1.34476V6.18574H1.34473V10.7258H6.98915L6.9892 20.4635H3.01547V25.0035H22.878V20.4635H19.1455V10.7258H24.6123V6.84396H24.6201V1.16895Z" fill="#AFE8C2"/>
<path d="M20.0801 1.16895V0.601444C19.7667 0.601444 19.5126 0.855523 19.5126 1.16895L20.0801 1.16895ZM24.6201 1.16895H25.1876C25.1876 0.855523 24.9336 0.601444 24.6201 0.601444V1.16895ZM20.0801 6.18574V6.75324C20.3935 6.75324 20.6476 6.49916 20.6476 6.18574H20.0801ZM17.7714 6.18574H17.2039C17.2039 6.49916 17.458 6.75324 17.7714 6.75324V6.18574ZM17.7714 1.16895H18.3389C18.3389 0.855523 18.0848 0.601444 17.7714 0.601444V1.16895ZM8.69136 1.16895V0.601444C8.37794 0.601444 8.12386 0.855523 8.12386 1.16895L8.69136 1.16895ZM8.69136 6.18574V6.75324C9.00478 6.75324 9.25886 6.49916 9.25886 6.18574H8.69136ZM5.88476 6.18574H5.31726C5.31726 6.49916 5.57134 6.75324 5.88476 6.75324V6.18574ZM5.88476 1.1691H6.45227C6.45227 0.855678 6.19819 0.601599 5.88476 0.601599V1.1691ZM1.34476 1.1691V0.601599C1.03133 0.601599 0.777255 0.855678 0.777255 1.1691H1.34476ZM1.34476 6.18574V6.75324C1.65818 6.75324 1.91226 6.49916 1.91226 6.18574H1.34476ZM1.34473 6.18574V5.61824C1.0313 5.61824 0.777225 5.87232 0.777225 6.18574H1.34473ZM1.34473 10.7258H0.777225C0.777225 11.0392 1.0313 11.2933 1.34473 11.2933L1.34473 10.7258ZM6.98915 10.7258L7.55665 10.7257C7.55665 10.4123 7.30257 10.1582 6.98915 10.1582V10.7258ZM6.9892 20.4635V21.031C7.13971 21.031 7.28405 20.9712 7.39048 20.8648C7.49691 20.7584 7.5567 20.614 7.5567 20.4635L6.9892 20.4635ZM3.01547 20.4635V19.896C2.70204 19.896 2.44797 20.1501 2.44797 20.4635H3.01547ZM3.01547 25.0035H2.44797C2.44797 25.3169 2.70204 25.571 3.01547 25.571V25.0035ZM22.878 25.0035V25.571C23.1914 25.571 23.4455 25.3169 23.4455 25.0035H22.878ZM22.878 20.4635H23.4455C23.4455 20.1501 23.1914 19.896 22.878 19.896V20.4635ZM19.1455 20.4635H18.578C18.578 20.7769 18.8321 21.031 19.1455 21.031V20.4635ZM19.1455 10.7258V10.1582C18.8321 10.1582 18.578 10.4123 18.578 10.7258H19.1455ZM24.6123 10.7258V11.2933C24.9257 11.2933 25.1798 11.0392 25.1798 10.7258H24.6123ZM24.6123 6.84396V6.27646C24.2988 6.27646 24.0448 6.53054 24.0448 6.84396H24.6123ZM24.6201 6.84396V7.41146C24.9336 7.41146 25.1876 7.15738 25.1876 6.84396H24.6201ZM20.0801 1.73645H24.6201V0.601444H20.0801V1.73645ZM20.6476 6.18574V1.16895H19.5126V6.18574H20.6476ZM17.7714 6.75324H20.0801V5.61824H17.7714V6.75324ZM17.2039 1.16895V6.18574H18.3389V1.16895H17.2039ZM8.69136 1.73645H17.7714V0.601444H8.69136V1.73645ZM9.25886 6.18574V1.16895H8.12386V6.18574H9.25886ZM5.88476 6.75324H8.69136V5.61824H5.88476V6.75324ZM5.31726 1.1691V6.18574H6.45227V1.1691H5.31726ZM1.34476 1.7366H5.88476V0.601599H1.34476V1.7366ZM1.91226 6.18574V1.1691H0.777255V6.18574H1.91226ZM1.34473 6.75324H1.34476V5.61824H1.34473V6.75324ZM1.91223 10.7258V6.18574H0.777225V10.7258H1.91223ZM6.98915 10.1582H1.34473V11.2933H6.98915V10.1582ZM6.42165 10.7258L6.42169 20.4635L7.5567 20.4635L7.55665 10.7257L6.42165 10.7258ZM6.9892 19.896H3.01547V21.031H6.9892V19.896ZM2.44797 20.4635V25.0035H3.58297V20.4635H2.44797ZM3.01547 25.571H22.878V24.436H3.01547V25.571ZM23.4455 25.0035V20.4635H22.3105V25.0035H23.4455ZM22.878 19.896H19.1455V21.031H22.878V19.896ZM19.713 20.4635V10.7258H18.578V20.4635H19.713ZM24.6123 10.1582H19.1455V11.2933H24.6123V10.1582ZM24.0448 6.84396V10.7258H25.1798V6.84396H24.0448ZM24.6201 6.27646H24.6123V7.41146H24.6201V6.27646ZM24.0526 1.16895V6.84396H25.1876V1.16895H24.0526Z" fill="#005E2C"/>
<path d="M11.5283 15.3558C11.5283 14.4156 12.2906 13.6533 13.2308 13.6533C14.1711 13.6533 14.9333 14.4156 14.9333 15.3558V20.4633H11.5283V15.3558Z" fill="#005E2C"/>
<path d="M3.58203 23.3008L22.3096 23.3008" stroke="#3DD771" stroke-width="2.27"/>
<path d="M9.82422 6.27637L9.82422 1.73636" stroke="white" stroke-width="1.135"/>
<path d="M21.1748 6.27637L21.1748 1.73636" stroke="white" stroke-width="1.135"/>
<path d="M2.44727 6.27637L2.44727 1.73636" stroke="white" stroke-width="1.135"/>
</svg>
